<svg width="37" height="25" viewBox="0 0 37 25" fill="none" xmlns="http://www.w3.org/2000/svg">
<rect width="37" height="25" rx="6" fill="#63B87B"/>
<path d="M17.2695 7.53125V14.1289H16.3906V11.1406H14.9961V13.7539H14.1289V7.74219H14.9961V10.3789H16.3906V7.53125H17.2695ZM8.36328 9.52344V8.78516H10.5898V7.61328H11.5039V8.78516H13.707V9.52344H8.36328ZM8.82031 11.8672C8.81445 10.7773 9.73438 10.0801 11.0469 10.0859C12.3652 10.0801 13.2793 10.7773 13.2852 11.8672C13.2793 12.9395 12.3652 13.6367 11.0469 13.6367C9.73438 13.6367 8.81445 12.9395 8.82031 11.8672ZM9.64062 11.8672C9.64062 12.5059 10.2148 12.9453 11.0469 12.9453C11.8789 12.9453 12.4531 12.5059 12.4531 11.8672C12.4531 11.2051 11.8789 10.7656 11.0469 10.7656C10.2148 10.7656 9.64062 11.2051 9.64062 11.8672ZM10.332 16.1328C10.3203 14.9609 11.627 14.3047 13.8242 14.3047C16.0156 14.3047 17.3223 14.9609 17.3281 16.1328C17.3223 17.2754 16.0156 17.9258 13.8242 17.9258C11.627 17.9258 10.3203 17.2754 10.332 16.1328ZM11.2461 16.1328C11.2344 16.8066 12.2012 17.2168 13.8242 17.2109C15.4414 17.2168 16.4023 16.8066 16.4141 16.1328C16.4023 15.418 15.4414 15.0195 13.8242 15.0312C12.2012 15.0195 11.2344 15.418 11.2461 16.1328ZM22.2852 10.332C22.2852 12.166 23.498 14.0586 24.9805 14.7852L24.418 15.5234C23.2695 14.9258 22.3086 13.6895 21.8457 12.2422C21.3828 13.7773 20.3984 15.0957 19.2266 15.7227L18.6406 14.9844C20.1641 14.2344 21.3711 12.2363 21.3828 10.332V8.43359H22.2852V10.332ZM25.9414 17.9492V7.53125H26.8555V11.7617H28.6016V12.5586H26.8555V17.9492H25.9414Z" fill="white"/>
</svg>
