<svg width="24" height="24" viewBox="0 0 24 24" fill="none" xmlns="http://www.w3.org/2000/svg">
<path d="M3 19.382V5.72076C3 5.29033 3.27543 4.90819 3.68377 4.77208L8.68377 3.10541C8.88904 3.03699 9.11096 3.03699 9.31623 3.10541L14.6838 4.89459C14.889 4.96301 15.111 4.96301 15.3162 4.89459L19.6838 3.43874C20.3313 3.2229 21 3.70487 21 4.38743V17.382C21 17.7607 20.786 18.107 20.4472 18.2764L15.4472 20.7764C15.1657 20.9172 14.8343 20.9172 14.5528 20.7764L9.44721 18.2236C9.16569 18.0828 8.83431 18.0828 8.55279 18.2236L4.44721 20.2764C3.78231 20.6088 3 20.1253 3 19.382Z" fill="none" stroke="current" stroke-width="2" stroke-linecap="round" stroke-linejoin="round"/>
<path d="M15 5V20.5" fill="none" stroke="current" stroke-width="2" stroke-linecap="round" stroke-linejoin="round"/>
<path d="M9.00001 4L9.00001 18" fill="none" stroke="current" stroke-width="2" stroke-linecap="round" stroke-linejoin="round"/>
</svg>
