<svg width="231" height="205" viewBox="0 0 231 205" fill="none" xmlns="http://www.w3.org/2000/svg">
<path fill-rule="evenodd" clip-rule="evenodd" d="M0.885593 82.6609C4.15862 45.8495 179.77 -25.2004 212.372 9.66668C244.974 44.5337 236.722 117.872 168.401 134.629C100.079 151.386 -2.38743 119.472 0.885593 82.6609Z" fill="#F7F7F7"/>
<path fill-rule="evenodd" clip-rule="evenodd" d="M108.415 36.6505H9.86963L22.8747 99.5631H62.8393L66.442 128.922H35.6575V139.408L195.961 139.408V128.922H144.385V124.728H90.0211V128.922H80.9605V99.5631H120.688L108.415 36.6505Z" fill="#D4E2FC"/>
<path d="M9.86963 36.6505V36.3005H9.43988L9.52688 36.7213L9.86963 36.6505ZM108.415 36.6505L108.759 36.5835L108.704 36.3005H108.415V36.6505ZM22.8747 99.5631L22.532 99.634L22.5897 99.9131H22.8747V99.5631ZM62.8393 99.5631L63.1867 99.5205L63.149 99.2131H62.8393V99.5631ZM66.442 128.922V129.272H66.8375L66.7894 128.88L66.442 128.922ZM35.6575 128.922V128.572H35.3075V128.922H35.6575ZM35.6575 139.408H35.3075V139.758H35.6575V139.408ZM195.961 139.408V139.758H196.311V139.408H195.961ZM195.961 128.922H196.311V128.572H195.961V128.922ZM144.385 128.922H144.035V129.272H144.385V128.922ZM144.385 124.728H144.735V124.378H144.385V124.728ZM90.0211 124.728V124.378H89.6712V124.728H90.0211ZM90.0211 128.922V129.272H90.3711V128.922H90.0211ZM80.9605 128.922H80.6105V129.272H80.9605V128.922ZM80.9605 99.5631V99.2131H80.6105V99.5631H80.9605ZM120.688 99.5631V99.9131H121.113L121.031 99.4961L120.688 99.5631ZM9.86963 37.0005H108.415V36.3005H9.86963V37.0005ZM23.2175 99.4922L10.2124 36.5796L9.52688 36.7213L22.532 99.634L23.2175 99.4922ZM62.8393 99.2131H22.8747V99.9131H62.8393V99.2131ZM66.7894 128.88L63.1867 99.5205L62.4919 99.6057L66.0946 128.965L66.7894 128.88ZM35.6575 129.272H66.442V128.572H35.6575V129.272ZM36.0075 139.408V128.922H35.3075V139.408H36.0075ZM195.961 139.058L35.6575 139.058V139.758L195.961 139.758V139.058ZM195.611 128.922V139.408H196.311V128.922H195.611ZM144.385 129.272H195.961V128.572H144.385V129.272ZM144.735 128.922V124.728H144.035V128.922H144.735ZM144.385 124.378H90.0211V125.078H144.385V124.378ZM89.6712 124.728V128.922H90.3711V124.728H89.6712ZM80.9605 129.272H90.0211V128.572H80.9605V129.272ZM80.6105 99.5631V128.922H81.3105V99.5631H80.6105ZM120.688 99.2131H80.9605V99.9131H120.688V99.2131ZM108.072 36.7175L120.344 99.6301L121.031 99.4961L108.759 36.5835L108.072 36.7175Z" fill="black"/>
<path d="M134.595 26.5641C134.555 26.5866 134.516 26.6104 134.478 26.635C134.54 26.6551 134.604 26.675 134.669 26.6947C134.671 26.6955 134.674 26.6962 134.676 26.697C134.821 26.7406 134.971 26.7833 135.127 26.8249M134.595 26.5641L162.574 27.7123C157.139 28.7345 151.66 28.7237 146.127 28.6116C145.89 28.6071 145.673 28.6034 145.471 28.5999C143.167 28.5598 142.919 28.5555 138.112 27.9126C136.927 27.7541 135.595 27.4946 134.558 27.1836C134.579 27.1696 134.598 27.1563 134.616 27.1437C134.692 27.0917 134.753 27.049 134.841 26.9993L134.849 26.995L134.856 26.9903C134.947 26.935 135.037 26.8799 135.127 26.8249M134.595 26.5641C134.92 26.3646 135.245 26.1686 135.571 25.9725C135.896 25.7765 136.221 25.5805 136.547 25.3809M134.595 26.5641L152.18 13.878M135.127 26.8249C135.36 26.683 135.594 26.5422 135.829 26.4008L135.83 26.4001C136.154 26.2046 136.481 26.0078 136.808 25.8074M135.127 26.8249C136.056 27.0727 137.166 27.2817 138.179 27.417C142.96 28.0564 143.201 28.0606 145.469 28.0998C145.673 28.1033 145.894 28.1071 146.137 28.1117L146.138 28.1117C151.67 28.2238 157.103 28.2326 162.482 27.2209L162.484 27.2206C163.145 27.0985 163.776 26.9619 164.416 26.8235C164.927 26.7127 165.445 26.6007 165.987 26.494M134.133 27.0472H134.249L134.281 27.0967C134.231 27.0803 134.182 27.0638 134.133 27.0472ZM134.133 27.0472L134.174 26.9291L134.133 26.8652M134.133 27.0472V26.8652M134.133 26.8652H134.196L134.214 26.8122C134.187 26.8301 134.16 26.8479 134.133 26.8652ZM136.808 25.8074L166.086 26.9842M136.808 25.8074C136.808 25.8073 136.808 25.8072 136.808 25.8071L136.547 25.3809M136.808 25.8074C136.807 25.8074 136.807 25.8075 136.807 25.8076L136.547 25.3809M136.808 25.8074C136.964 25.7116 137.113 25.6005 137.227 25.4676C137.343 25.3321 137.449 25.1405 137.442 24.9022C137.435 24.6637 137.317 24.479 137.194 24.3515C137.072 24.2267 136.918 24.1265 136.759 24.0428C136.311 23.8059 135.858 23.5702 135.406 23.3349C135.262 23.2603 135.119 23.1857 134.976 23.1112M136.808 25.8074L136.343 20.8108C136.454 20.9441 136.562 21.0824 136.637 21.2207C136.712 21.3606 136.787 21.5589 136.744 21.7893C136.702 22.0208 136.56 22.1796 136.436 22.2836C136.315 22.3859 136.162 22.4754 136.007 22.5586M165.987 26.494C165.987 26.4942 165.986 26.4943 165.985 26.4945L166.086 26.9842M165.987 26.494C165.988 26.4939 165.989 26.4937 165.989 26.4936L166.086 26.9842M165.987 26.494C166.122 26.4663 166.267 26.4427 166.404 26.4448C166.544 26.4469 166.734 26.4767 166.899 26.6129C167.064 26.7488 167.13 26.928 167.16 27.0643C167.189 27.1977 167.194 27.3442 167.194 27.4813C167.194 27.7321 167.195 27.9834 167.195 28.2349C167.196 29.2433 167.197 30.2568 167.18 31.2696M166.086 26.9842C166.596 26.8792 166.694 26.9632 166.694 27.4813C166.694 27.7334 166.695 27.9854 166.695 28.2375C166.696 29.2456 166.697 30.2538 166.68 31.2619M167.18 31.2696C167.18 31.2694 167.18 31.2692 167.18 31.269L166.68 31.2619M167.18 31.2696C167.152 33.2443 167.121 35.2206 167.089 37.1964L167.089 37.1973C167.063 38.8712 167.036 40.5446 167.012 42.2169M167.18 31.2696C167.18 31.2698 167.18 31.27 167.18 31.2702L166.68 31.2619M166.68 31.2619L167.012 42.2169M167.012 42.2169C167.225 42.0093 167.448 41.8062 167.679 41.6313M167.012 42.2169L167.981 42.0297M167.679 41.6313C167.68 41.6311 167.68 41.6308 167.68 41.6305L167.981 42.0297M167.679 41.6313C167.679 41.6316 167.679 41.6319 167.678 41.6322L167.981 42.0297M167.679 41.6313C168.719 40.8386 169.877 40.5679 170.932 40.855C171.988 41.142 172.851 41.9618 173.353 43.1678M167.981 42.0297C169.863 40.5945 171.982 41.1756 172.892 43.36M173.353 43.1678C173.353 43.1677 173.353 43.1676 173.353 43.1674L172.892 43.36M173.353 43.1678C173.913 44.5094 173.926 45.8914 173.685 47.2209M173.353 43.1678L172.892 43.36M172.892 43.36L173.685 47.2209M173.685 47.2209C173.656 47.2688 173.627 47.3167 173.598 47.3644L173.165 47.2806L173.685 47.2209ZM173.685 47.2209C173.675 47.2729 173.666 47.3247 173.655 47.3764C173.555 47.896 173.417 48.3888 173.241 48.8576C175.984 44.7138 177.874 40.1907 178.411 35.0776C178.74 31.969 178.439 28.9235 177.327 25.997C175.396 20.9072 171.745 17.5186 166.778 15.4813M173.685 47.2209C175.924 43.5065 177.445 39.4913 177.914 35.0254L177.914 35.025C178.235 31.9838 177.94 29.0184 176.859 26.1747L176.859 26.1744C174.984 21.2298 171.443 17.9355 166.589 15.9439M166.589 15.9439C166.589 15.944 166.589 15.944 166.589 15.9441L166.778 15.4813M166.589 15.9439C161.981 14.0595 157.169 13.7517 152.243 14.3741L152.243 14.3741C146.429 15.1066 141.025 17.0898 135.993 20.0751M166.589 15.9439C166.589 15.9439 166.589 15.9439 166.589 15.9439L166.778 15.4813M166.778 15.4813C162.071 13.5559 157.167 13.2479 152.18 13.878M165.619 56.8762C165.615 56.904 165.61 56.9318 165.606 56.9594C165.606 56.9624 165.605 56.9654 165.605 56.9684C165.572 57.1761 165.541 57.3782 165.511 57.5731C165.697 57.4456 165.861 57.3316 165.904 57.2923C167.516 55.8499 169.037 54.3115 170.422 52.649C170.063 52.9266 169.669 53.1257 169.258 53.2358M165.619 56.8762C166.9 55.727 168.121 54.5183 169.258 53.2358M165.619 56.8762C165.727 56.1842 165.847 55.4339 165.967 54.6877L165.996 54.5101C166.114 53.7713 166.231 53.0413 166.335 52.3829M165.619 56.8762C165.603 56.8907 165.587 56.9052 165.571 56.9197L165.571 56.9196L165.565 56.925C165.567 56.9225 165.565 56.9241 165.556 56.9308C165.542 56.9412 165.512 56.9638 165.458 57.0015C165.384 57.0538 165.29 57.1184 165.189 57.1879L165.161 57.2074C165.124 57.2322 165.087 57.2577 165.05 57.2835C165.184 56.4108 165.345 55.4122 165.502 54.4316C165.644 53.5452 165.784 52.6735 165.9 51.9232C165.925 51.9487 165.951 51.9755 165.977 52.0031C166.044 52.0734 166.122 52.1563 166.188 52.2274C166.255 52.2994 166.311 52.3594 166.334 52.3822C166.334 52.3824 166.334 52.3827 166.335 52.3829M169.258 53.2358C168.984 53.3093 168.703 53.3431 168.419 53.3343C167.666 53.311 166.939 52.9885 166.335 52.3829M169.258 53.2358C169.535 52.9235 169.807 52.6068 170.074 52.2855C169.015 53.076 167.691 53.0354 166.688 52.0291C166.668 52.0089 166.623 51.9607 166.565 51.8986C166.525 51.8562 166.48 51.8073 166.432 51.7563C166.401 51.9553 166.369 52.1643 166.335 52.3811C166.335 52.3817 166.335 52.3823 166.335 52.3829M135.735 19.647C140.82 16.6295 146.29 14.6201 152.18 13.878M135.735 19.647C135.653 19.6973 135.573 19.7496 135.492 19.804C135.605 19.9366 135.713 20.0636 135.818 20.1874M135.735 19.647L135.99 20.077C135.991 20.0763 135.992 20.0757 135.993 20.0751M135.735 19.647L135.997 20.0732C135.996 20.0738 135.994 20.0744 135.993 20.0751M152.18 13.878L135.818 20.1874M135.818 20.1874C135.741 20.2385 135.664 20.2921 135.579 20.3502C135.524 20.3884 135.466 20.4285 135.403 20.4712C135.596 20.6984 135.778 20.9134 135.959 21.1312C136.393 21.6493 136.372 21.7963 135.77 22.1184M135.818 20.1874C135.876 20.1489 135.934 20.1117 135.993 20.0751M135.77 22.1184C135.334 22.3545 134.898 22.5868 134.44 22.8292C134.466 22.8446 134.487 22.8567 134.511 22.8685L134.519 22.8726L134.519 22.8727C134.671 22.9522 134.823 23.0317 134.976 23.1112M135.77 22.1184L136.008 22.558C136.008 22.5582 136.007 22.5584 136.007 22.5586M135.77 22.1184L136.006 22.5592C136.006 22.559 136.007 22.5588 136.007 22.5586M134.976 23.1112C134.8 23.2046 134.622 23.299 134.439 23.3953C134.686 23.524 134.932 23.652 135.178 23.7799C135.629 24.0144 136.078 24.2483 136.526 24.4848C137.071 24.7718 137.085 25.0519 136.547 25.3809M134.976 23.1112C135.326 22.9251 135.667 22.7431 136.007 22.5586" fill="#2B2B2B" stroke="#2B2B2B"/>
<path d="M166.827 26.8641C157.785 28.7842 147.313 29.349 138.112 27.9126C137.025 33.1728 135.679 40.0444 136.115 47.1726C136.761 57.7035 141.073 66.93 151.869 62.606C152.007 64.995 152.094 67.4827 152.188 69.8717L149.227 71.1741L146.266 72.4765V73.9649L146.629 75.4534C150.776 83.9897 164.124 76.3241 168.38 71.3601C166.652 70.4432 165.48 70.2438 163.23 69.8062C164.093 64.3361 164.528 60.5777 165.34 55.1002C165.507 53.969 165.623 52.8229 165.783 51.6842C165.804 51.5577 165.928 51.3418 166 51.3418C166.16 51.3493 166.384 51.4237 166.457 51.5428C167.378 53.1652 168.897 53.4057 170.173 52.3786C172.312 50.652 173.91 46.6025 172.961 43.9903C172.265 42.0925 170.292 40.405 168.654 41.5437L166.688 42.9417L166.827 26.8641Z" fill="white"/>
<path d="M145.916 40.0444C144.713 43.3786 143.415 46.7127 143.118 50.285C142.958 51.7437 143.19 51.9 144.604 51.8256L146.991 51.638M138.112 27.9126C147.313 29.349 157.785 28.7842 166.827 26.8641L166.688 42.9417L168.654 41.5437C170.292 40.405 172.265 42.0925 172.961 43.9903C173.91 46.6025 172.312 50.652 170.173 52.3786C168.897 53.4057 167.378 53.1652 166.457 51.5428C166.384 51.4237 166.16 51.3493 166 51.3418C165.928 51.3418 165.804 51.5577 165.783 51.6842C165.623 52.8229 165.507 53.969 165.34 55.1002C164.528 60.5777 164.093 64.3361 163.23 69.8062C165.48 70.2438 166.652 70.4432 168.38 71.3601C164.124 76.3241 150.776 83.9897 146.629 75.4534L146.266 73.9649V72.4765L149.227 71.1741L152.188 69.8717C152.094 67.4827 152.007 64.995 151.869 62.606C141.073 66.93 136.761 57.7035 136.115 47.1726C135.679 40.0444 137.025 33.1728 138.112 27.9126Z" stroke="#2B2B2B" stroke-width="0.7" stroke-linecap="round"/>
<path d="M135.669 103.467L135.73 103.112L135.373 103.061C133.714 102.826 132.003 102.675 130.301 102.527L130.149 102.514C128.496 102.37 126.855 102.228 125.265 102.012L124.956 101.971L124.879 102.273C124.034 105.578 123.132 109.631 122.612 113.017L122.611 113.025L122.61 113.033C122.582 113.298 122.526 113.427 122.462 113.508C122.396 113.591 122.287 113.668 122.058 113.757C120.591 114.323 119.13 114.893 117.67 115.463C115.804 116.19 113.94 116.918 112.065 117.636C111.854 117.641 111.642 117.645 111.43 117.649C108.287 117.714 105.098 117.779 102.472 120.217C99.7123 122.541 98.7191 126.134 99.9489 129.293C100.043 129.583 100.191 129.837 100.433 129.969C100.698 130.114 100.974 130.06 101.191 129.951C101.404 129.845 101.607 129.666 101.792 129.466C101.98 129.263 102.167 129.017 102.345 128.755C102.702 128.231 103.038 127.619 103.293 127.088C103.387 126.893 103.471 126.707 103.542 126.539C103.388 127.869 103.428 128.806 103.629 129.398C103.735 129.714 103.904 129.978 104.16 130.123C104.428 130.275 104.72 130.258 104.981 130.156C105.471 129.963 105.958 129.433 106.373 128.774C106.776 128.134 107.145 127.318 107.409 126.412C107.396 126.611 107.36 126.836 107.319 127.09L107.313 127.124C107.267 127.405 107.216 127.716 107.198 128.02C107.16 128.645 107.253 129.364 107.931 129.799L107.953 129.813L107.977 129.823C108.381 130.004 108.764 129.944 109.081 129.787C109.38 129.637 109.629 129.398 109.817 129.185C110.185 128.82 110.498 128.385 110.789 127.98C110.86 127.882 110.929 127.785 110.998 127.692C111.262 127.333 111.522 127.009 111.819 126.747C111.84 126.888 111.845 127.042 111.841 127.211C111.839 127.281 111.836 127.356 111.833 127.435C111.821 127.714 111.807 128.039 111.859 128.346L111.859 128.347C111.952 128.881 112.195 129.337 112.633 129.515C113.072 129.694 113.548 129.531 113.965 129.198C114.296 128.999 114.55 128.727 114.761 128.451C114.902 128.266 115.038 128.061 115.163 127.87C115.224 127.778 115.282 127.689 115.338 127.608C115.703 127.077 116.024 126.745 116.562 126.722C118.818 126.704 120.373 126.768 121.525 126.815C121.565 126.817 121.604 126.818 121.643 126.82C122.795 126.867 123.573 126.897 124.251 126.783C124.95 126.666 125.529 126.402 126.308 125.908C126.837 125.573 127.475 125.121 128.318 124.523C128.7 124.252 129.124 123.951 129.599 123.618L129.636 123.592L129.665 123.558L129.398 123.332C129.665 123.558 129.665 123.558 129.665 123.558L129.665 123.558L129.666 123.557L129.667 123.556L129.672 123.55L129.69 123.528C129.706 123.509 129.728 123.482 129.757 123.446C129.814 123.375 129.896 123.272 129.995 123.142C130.194 122.882 130.463 122.512 130.746 122.071C131.307 121.2 131.944 120.022 132.181 118.862C132.48 117.609 132.789 116.38 133.101 115.139C133.984 111.623 134.891 108.011 135.669 103.467Z" fill="white" stroke="#2B2B2B" stroke-width="0.7"/>
<path d="M187.978 106.422L168.777 107.254V118.285C156.824 117.208 132.311 118.285 132.311 118.285L135.322 103.409C135.322 103.409 135.322 103.409 124.875 102.004C128.234 89.8201 135.287 77.8737 146.767 71.883C147.707 77.3284 153.513 79.2368 158.169 76.9719C162.02 75.0985 165.641 72.3024 167.711 70.7226C181.239 76.6853 187.491 92.4275 187.971 106.429L187.978 106.422Z" fill="#B8BDF5" stroke="#2B2B2B" stroke-width="0.7" stroke-linejoin="round"/>
<path d="M168.683 106.855L168.308 106.878L168.307 107.253C168.302 109.174 168.304 111.823 168.306 113.687C168.307 114.155 168.307 114.574 168.307 114.919C157.541 113.826 146.523 114.526 136.057 117.378C127.624 119.181 123.593 123.485 122.644 126.318C122.408 127.023 122.349 127.683 122.514 128.2C122.599 128.464 122.745 128.698 122.962 128.869C123.18 129.041 123.446 129.129 123.737 129.14C124.301 129.162 124.966 128.896 125.69 128.379C126.229 127.993 126.826 127.451 127.471 126.733C127.38 126.893 127.292 127.06 127.208 127.23C126.924 127.811 126.678 128.461 126.58 129.022C126.531 129.3 126.513 129.584 126.564 129.836C126.615 130.094 126.749 130.36 127.03 130.509C127.297 130.651 127.614 130.64 127.93 130.556C128.245 130.472 128.612 130.301 129.037 130.043C129.928 129.662 130.56 128.894 131.101 128.235C131.119 128.213 131.136 128.192 131.153 128.171C131.529 127.715 131.861 127.323 132.214 127.049C132.128 127.284 132.007 127.533 131.869 127.811L131.852 127.847C131.589 128.377 131.275 129.01 131.263 129.728L131.262 129.81L131.293 129.885C131.421 130.2 131.612 130.457 131.893 130.589C132.178 130.724 132.475 130.693 132.732 130.604C133.22 130.435 133.737 129.994 134.201 129.553C134.426 129.34 134.652 129.112 134.871 128.891L134.918 128.844C135.153 128.608 135.379 128.382 135.592 128.184C135.723 128.063 135.845 127.955 135.958 127.865C135.948 127.886 135.937 127.908 135.925 127.931C135.879 128.019 135.834 128.099 135.784 128.187C135.753 128.242 135.72 128.3 135.684 128.365C135.606 128.507 135.524 128.666 135.462 128.839C135.106 129.418 135.2 130.054 135.604 130.433C136.013 130.818 136.65 130.853 137.177 130.425C137.792 130.135 138.307 129.661 138.762 129.242C138.861 129.151 138.957 129.063 139.051 128.98C139.609 128.482 140.109 128.129 140.741 128.087C143.557 128.301 147.767 128.623 151.277 128.892C153.037 129.027 154.622 129.149 155.767 129.236L157.12 129.34L157.488 129.369L157.583 129.376L157.607 129.378L157.614 129.378L157.615 129.378L157.616 129.379C157.616 129.379 157.616 129.379 157.646 128.984L157.616 129.379L157.622 129.379L157.646 128.98C157.622 129.379 157.622 129.379 157.622 129.379L157.623 129.379L157.625 129.379L157.634 129.38L157.671 129.382L157.815 129.39C157.941 129.398 158.127 129.408 158.367 129.421C158.847 129.448 159.541 129.484 160.4 129.524C162.117 129.604 164.494 129.7 167.131 129.761C172.398 129.885 178.733 129.874 182.928 129.327L182.994 129.319L183.054 129.289C183.671 128.985 184.172 128.444 184.583 127.767C184.995 127.089 185.331 126.25 185.607 125.311C186.16 123.432 186.491 121.095 186.688 118.701C187.015 114.737 186.98 110.559 186.958 107.958C186.954 107.416 186.95 106.944 186.95 106.555V106.129L186.525 106.156C183.745 106.33 180.703 106.417 177.643 106.505L177.615 106.505C174.568 106.592 171.504 106.68 168.683 106.855Z" fill="white" stroke="#2B2B2B" stroke-width="0.8"/>
<path d="M157.866 45.8145L157.867 45.8142C159.887 44.0093 160.709 41.7801 160.761 39.9259C160.784 37.5597 160.345 35.9766 159.315 34.5568L159.314 34.5567C157.258 31.7197 153.463 31.2829 150.653 33.5822L150.652 33.5824C147.332 36.2949 146.527 41.4249 148.85 44.8383L157.866 45.8145ZM157.866 45.8145C154.991 48.3898 150.954 47.9287 148.85 44.8383L157.866 45.8145Z" stroke="#2B2B2B" stroke-width="0.7"/>
<path d="M145.055 58.312C144.385 58.3204 144.148 58.2575 143.688 57.9709C143.235 57.6843 142.88 56.8441 143.068 56.4107C143.124 56.2848 143.34 56.2233 143.34 56.2233C143.688 56.2233 143.661 56.3547 143.675 56.4876C143.772 57.3124 144.093 57.6619 144.957 57.634C146.33 57.592 147.48 57.0538 148.296 55.9004C148.296 55.9004 148.677 55.3778 148.86 55.5369C149.043 55.6959 149.055 55.8444 149.014 55.9703C148.944 56.194 148.79 56.3967 148.644 56.5854C147.85 57.592 146.344 58.312 145.055 58.312Z" fill="#2B2B2B"/>
<path d="M152.503 41.1816C152.565 40.3707 152.733 39.6927 153.297 39.1824C153.883 38.6511 154.621 38.7909 154.963 39.5109C155.36 40.3288 155.075 41.7199 154.385 42.321C153.757 42.8663 152.977 42.6775 152.677 41.8946C152.579 41.643 152.545 41.3704 152.503 41.1816Z" fill="#2B2B2B"/>
<path d="M154.454 35.2958C154.859 35.3657 155.34 35.4216 155.8 35.5475C155.946 35.5894 156.043 35.8201 156.162 35.9669C156.002 36.0508 155.834 36.2115 155.674 36.2045C154.991 36.1766 154.301 36.1067 153.625 36.0228C153.493 36.0088 153.29 35.8341 153.283 35.7222C153.283 35.6034 153.444 35.4007 153.569 35.3727C153.827 35.3028 154.106 35.3238 154.454 35.3028V35.2958Z" fill="#2B2B2B"/>
<path d="M142.797 45.9465L142.797 45.9461C144.609 44.1292 145.352 41.8771 145.399 39.994C145.42 37.6004 145.023 35.9972 144.096 34.5626L144.096 34.5625C143.167 33.1238 141.861 32.3167 140.492 32.1431C139.123 31.9695 137.655 32.4247 136.396 33.5819L136.396 33.5821C133.418 36.3139 132.683 41.5055 134.779 44.9633L142.797 45.9465ZM142.797 45.9465C141.506 47.245 139.969 47.7606 138.536 47.5839M142.797 45.9465L138.536 47.5839M138.536 47.5839C137.103 47.4071 135.73 46.5322 134.779 44.9633L138.536 47.5839Z" stroke="#2B2B2B" stroke-width="0.7"/>
<path d="M142.299 41.4473C142.299 41.5102 142.299 41.5801 142.299 41.643C142.243 42.363 141.888 42.8523 141.351 42.9572C140.891 43.048 140.355 42.7335 140.041 42.1463C139.658 41.4193 139.511 40.6504 139.867 39.8675C140.201 39.1265 140.933 38.9867 141.532 39.5319C142.097 40.0422 142.271 40.7203 142.292 41.4543L142.299 41.4473Z" fill="#2B2B2B"/>
<path d="M140.626 36.3444C140.166 36.4143 139.706 36.4772 139.246 36.5541C138.995 36.596 138.703 36.631 138.682 36.3094C138.675 36.1626 138.905 35.897 139.065 35.869C139.713 35.7572 140.368 35.7013 141.024 35.6593C141.281 35.6453 141.602 35.7292 141.553 36.0648C141.532 36.1976 141.212 36.2954 141.017 36.3723C140.905 36.4143 140.766 36.3793 140.633 36.3793C140.633 36.3653 140.633 36.3514 140.633 36.3374L140.626 36.3444Z" fill="#2B2B2B"/>
<path d="M147.173 40.1456C147.173 40.1456 145.959 40.031 145.082 40.1648" stroke="black" stroke-linecap="round" stroke-linejoin="round"/>
<path d="M135.324 103.516C135.324 103.516 136.379 98.9355 136.718 98.2534" stroke="black" stroke-width="0.7" stroke-linecap="round" stroke-linejoin="round"/>
<path d="M168.225 103.723C168.225 103.723 168.251 98.9728 168.712 98.1651" stroke="black" stroke-width="0.7" stroke-linecap="round" stroke-linejoin="round"/>
<path d="M53.895 165.703C55.0747 165.703 56.0825 166.117 56.7544 166.812H60.0669V165.266H61.8013V172.406H60.0669V171.047H56.77C56.106 171.758 55.0825 172.18 53.895 172.188C51.7544 172.18 50.1606 170.852 50.1606 168.938C50.1606 167.023 51.7544 165.703 53.895 165.703ZM51.8169 168.938C51.8169 170.062 52.6841 170.773 53.895 170.781C55.0669 170.773 55.9341 170.062 55.9419 168.938C55.9341 167.828 55.0669 167.109 53.895 167.109C52.6841 167.109 51.8169 167.828 51.8169 168.938ZM52.4888 174.391V173.047H61.8013V176.703H54.2388V177.844H62.2544V179.219H52.5044V175.422H60.0669V174.391H52.4888ZM57.4966 168.156C57.5591 168.406 57.5981 168.664 57.5981 168.938C57.5981 169.195 57.5669 169.453 57.5044 169.688H60.0669V168.156H57.4966ZM75.5669 165.281V173.266H73.8169V165.281H75.5669ZM63.8013 171.609C66.0903 170.883 67.2778 169.047 67.27 167.188V165.812H69.0669V167.188C69.0591 168.992 70.2622 170.672 72.4731 171.375L71.6294 172.703C69.9966 172.195 68.8247 171.156 68.1841 169.805C67.5513 171.258 66.356 172.422 64.6606 172.984L63.8013 171.609ZM66.1919 179.219V173.969H75.5669V179.219H66.1919ZM67.9106 177.812H73.8638V175.344H67.9106V177.812ZM89.3794 165.266V179.391H87.6294V165.266H89.3794ZM77.9263 168.844V167.453H81.2856V165.438H83.0513V167.453H86.395V168.844H77.9263ZM78.5981 173.078C78.5981 171.125 80.1138 169.742 82.1919 169.75C84.2622 169.742 85.7856 171.125 85.7856 173.078C85.7856 175.023 84.2622 176.391 82.1919 176.391C80.1138 176.391 78.5981 175.023 78.5981 173.078ZM80.2544 173.078C80.2544 174.227 81.0591 174.961 82.1919 174.953C83.3169 174.961 84.1216 174.227 84.1138 173.078C84.1216 171.93 83.3169 171.172 82.1919 171.172C81.0591 171.172 80.2544 171.93 80.2544 173.078ZM107.379 165.266V179.391H105.708V172.141H104.192V178.734H102.567V165.641H104.192V170.734H105.708V165.266H107.379ZM95.145 175.234C98.1528 173.5 99.4263 171.266 99.6763 168.438H95.8013V167.047H101.364C101.364 170.867 100.161 174.148 96.145 176.438L95.145 175.234ZM111.286 165.891V167.688H114.583V165.891H116.301V172.047H109.567V165.891H111.286ZM110.989 174.422V173.062H120.223V176.766H112.723V177.891H120.661V179.266H111.004V175.5H118.489V174.422H110.989ZM111.286 170.672H114.583V169H111.286V170.672ZM118.489 172.5V165.266H120.223V168.125H122.192V169.531H120.223V172.5H118.489ZM135.786 171.75V173.156H130.192V174.344C132.715 174.508 134.215 175.383 134.223 176.844C134.215 178.469 132.372 179.375 129.333 179.375C126.247 179.375 124.411 178.469 124.411 176.844C124.411 175.383 125.911 174.5 128.473 174.336V173.156H122.911V171.75H135.786ZM123.536 169.734C126.129 169.492 127.825 168.438 128.114 167.281H124.083V165.891H134.629V167.281H130.559C130.84 168.445 132.52 169.492 135.176 169.734L134.567 171.109C131.997 170.844 130.098 169.82 129.333 168.391C128.567 169.82 126.692 170.844 124.129 171.109L123.536 169.734ZM126.176 176.844C126.168 177.625 127.278 178.055 129.333 178.047C131.356 178.055 132.473 177.625 132.489 176.844C132.473 176.062 131.356 175.648 129.333 175.641C127.278 175.648 126.168 176.062 126.176 176.844ZM148.489 165.266V179.406H146.739V165.266H148.489ZM137.192 171.281C137.184 168.234 138.739 166.297 140.879 166.297C142.997 166.297 144.559 168.234 144.567 171.281C144.559 174.352 142.997 176.281 140.879 176.281C138.739 176.281 137.184 174.352 137.192 171.281ZM138.864 171.281C138.864 173.453 139.684 174.711 140.879 174.719C142.067 174.711 142.879 173.453 142.879 171.281C142.879 169.125 142.067 167.859 140.879 167.859C139.684 167.859 138.864 169.125 138.864 171.281ZM162.754 165.266V179.391H161.083V165.266H162.754ZM150.708 171.375C150.708 168.266 151.911 166.336 153.754 166.344C155.465 166.336 156.629 167.938 156.833 170.578H158.192V165.516H159.848V178.703H158.192V171.984H156.848C156.684 174.742 155.504 176.43 153.754 176.422C151.911 176.43 150.708 174.492 150.708 171.375ZM152.317 171.375C152.309 173.586 152.856 174.773 153.754 174.766C154.692 174.773 155.247 173.586 155.254 171.375C155.247 169.172 154.692 167.977 153.754 167.984C152.856 167.977 152.309 169.172 152.317 171.375ZM177.301 176.25V177.672H164.395V176.25H167.379V172.68C166.254 172.031 165.575 171.016 165.583 169.766C165.575 167.516 167.778 166.031 170.817 166.031C173.872 166.031 176.09 167.516 176.083 169.766C176.09 171 175.426 171.992 174.333 172.641V176.25H177.301ZM167.286 169.766C167.278 171.211 168.708 172.133 170.817 172.125C172.918 172.133 174.379 171.211 174.379 169.766C174.379 168.297 172.918 167.398 170.817 167.406C168.708 167.398 167.278 168.297 167.286 169.766ZM169.098 176.25H172.567V173.305C172.028 173.422 171.442 173.484 170.817 173.484C170.208 173.484 169.629 173.422 169.098 173.312V176.25ZM179.942 178.125C179.27 178.125 178.715 177.578 178.723 176.906C178.715 176.25 179.27 175.711 179.942 175.703C180.59 175.711 181.145 176.25 181.145 176.906C181.145 177.578 180.59 178.125 179.942 178.125ZM95.6841 187.906V189.078C95.6841 190.188 95.6841 191.367 95.3091 192.844L93.5747 192.641C93.9263 191.281 93.9497 190.297 93.9497 189.281H85.9028V187.906H95.6841ZM84.4341 194.875V193.469H89.4028V191.016H91.1216V193.469H97.2466V194.875H84.4341ZM85.9497 201.203V196.141H95.6528V197.531H87.6997V199.812H95.8403V201.203H85.9497ZM109.2 188.484V195.156H102.512V188.484H109.2ZM104.122 201.109V196.578H105.856V199.703H113.731V201.109H104.122ZM104.215 193.781H107.497V189.875H104.215V193.781ZM111.434 197.578V187.266H113.168V191.406H115.137V192.859H113.168V197.578H111.434ZM129.012 192.719V194.141H126.918V201.359H125.184V187.266H126.918V192.719H129.012ZM116.356 197.875V188.641H118.075V196.438C119.958 196.406 121.958 196.242 124.09 195.797L124.278 197.266C121.895 197.742 119.637 197.867 117.543 197.875H116.356ZM142.59 198.25V199.672H129.684V198.25H132.668V194.68C131.543 194.031 130.864 193.016 130.872 191.766C130.864 189.516 133.067 188.031 136.106 188.031C139.161 188.031 141.379 189.516 141.372 191.766C141.379 193 140.715 193.992 139.622 194.641V198.25H142.59ZM132.575 191.766C132.567 193.211 133.997 194.133 136.106 194.125C138.208 194.133 139.668 193.211 139.668 191.766C139.668 190.297 138.208 189.398 136.106 189.406C133.997 189.398 132.567 190.297 132.575 191.766ZM134.387 198.25H137.856V195.305C137.317 195.422 136.731 195.484 136.106 195.484C135.497 195.484 134.918 195.422 134.387 195.312V198.25ZM146.418 188.688L146.247 196.672H144.481L144.293 188.688H146.418ZM144.153 198.906C144.145 198.25 144.7 197.711 145.372 197.703C146.02 197.711 146.575 198.25 146.575 198.906C146.575 199.578 146.02 200.125 145.372 200.125C144.7 200.125 144.145 199.578 144.153 198.906Z" fill="#2B2B2B"/>
</svg>
