<svg width="231" height="205" viewBox="0 0 231 205" fill="none" xmlns="http://www.w3.org/2000/svg">
<path fill-rule="evenodd" clip-rule="evenodd" d="M0.694675 82.6609C3.9677 45.8495 179.579 -25.2004 212.181 9.66668C244.783 44.5337 236.531 117.872 168.21 134.629C99.8885 151.386 -2.57835 119.472 0.694675 82.6609Z" fill="#F7F7F7"/>
<path fill-rule="evenodd" clip-rule="evenodd" d="M108.224 36.6505H9.67871L22.6838 99.5631H62.6484L66.2511 128.922H35.4666V139.408L195.77 139.408V128.922H144.194V124.728H89.8302V128.922H80.7696V99.5631H120.497L108.224 36.6505Z" fill="#D4E2FC"/>
<path d="M9.67871 36.6505V36.3005H9.24896L9.33596 36.7213L9.67871 36.6505ZM108.224 36.6505L108.568 36.5835L108.513 36.3005H108.224V36.6505ZM22.6838 99.5631L22.3411 99.634L22.3988 99.9131H22.6838V99.5631ZM62.6484 99.5631L62.9958 99.5205L62.9581 99.2131H62.6484V99.5631ZM66.2511 128.922V129.272H66.6466L66.5984 128.88L66.2511 128.922ZM35.4666 128.922V128.572H35.1166V128.922H35.4666ZM35.4666 139.408H35.1166V139.758H35.4666V139.408ZM195.77 139.408V139.758H196.12V139.408H195.77ZM195.77 128.922H196.12V128.572H195.77V128.922ZM144.194 128.922H143.844V129.272H144.194V128.922ZM144.194 124.728H144.544V124.378H144.194V124.728ZM89.8302 124.728V124.378H89.4802V124.728H89.8302ZM89.8302 128.922V129.272H90.1802V128.922H89.8302ZM80.7696 128.922H80.4196V129.272H80.7696V128.922ZM80.7696 99.5631V99.2131H80.4196V99.5631H80.7696ZM120.497 99.5631V99.9131H120.922L120.84 99.4961L120.497 99.5631ZM9.67871 37.0005H108.224V36.3005H9.67871V37.0005ZM23.0266 99.4922L10.0215 36.5796L9.33596 36.7213L22.3411 99.634L23.0266 99.4922ZM62.6484 99.2131H22.6838V99.9131H62.6484V99.2131ZM66.5984 128.88L62.9958 99.5205L62.301 99.6057L65.9037 128.965L66.5984 128.88ZM35.4666 129.272H66.2511V128.572H35.4666V129.272ZM35.8166 139.408V128.922H35.1166V139.408H35.8166ZM195.77 139.058L35.4666 139.058V139.758L195.77 139.758V139.058ZM195.42 128.922V139.408H196.12V128.922H195.42ZM144.194 129.272H195.77V128.572H144.194V129.272ZM144.544 128.922V124.728H143.844V128.922H144.544ZM144.194 124.378H89.8302V125.078H144.194V124.378ZM89.4802 124.728V128.922H90.1802V124.728H89.4802ZM80.7696 129.272H89.8302V128.572H80.7696V129.272ZM80.4196 99.5631V128.922H81.1196V99.5631H80.4196ZM120.497 99.2131H80.7696V99.9131H120.497V99.2131ZM107.881 36.7175L120.153 99.6301L120.84 99.4961L108.568 36.5835L107.881 36.7175Z" fill="black"/>
<path d="M134.404 26.5641C134.364 26.5866 134.325 26.6104 134.287 26.635C134.349 26.6551 134.413 26.675 134.478 26.6947C134.48 26.6955 134.483 26.6962 134.486 26.697C134.63 26.7406 134.78 26.7833 134.936 26.8249M134.404 26.5641L162.383 27.7123C156.948 28.7345 151.469 28.7237 145.936 28.6116C145.699 28.6071 145.482 28.6034 145.281 28.5999C142.976 28.5598 142.728 28.5555 137.921 27.9126C136.736 27.7541 135.404 27.4946 134.367 27.1836C134.388 27.1696 134.407 27.1563 134.425 27.1437C134.501 27.0917 134.562 27.049 134.65 26.9993L134.658 26.995L134.665 26.9903C134.756 26.935 134.846 26.8799 134.936 26.8249M134.404 26.5641C134.729 26.3646 135.055 26.1686 135.38 25.9725C135.705 25.7765 136.03 25.5805 136.356 25.3809M134.404 26.5641L151.989 13.878M134.936 26.8249C135.17 26.683 135.403 26.5422 135.638 26.4008L135.639 26.4001C135.963 26.2046 136.29 26.0078 136.617 25.8074M134.936 26.8249C135.865 27.0727 136.975 27.2817 137.988 27.417C142.769 28.0564 143.01 28.0606 145.278 28.0998C145.483 28.1033 145.704 28.1071 145.946 28.1117L145.947 28.1117C151.479 28.2238 156.912 28.2326 162.291 27.2209L162.293 27.2206C162.954 27.0985 163.585 26.9619 164.225 26.8235C164.736 26.7127 165.254 26.6007 165.796 26.494M133.942 27.0472H134.058L134.09 27.0967C134.04 27.0803 133.991 27.0638 133.942 27.0472ZM133.942 27.0472L133.983 26.9291L133.942 26.8652M133.942 27.0472V26.8652M133.942 26.8652H134.005L134.023 26.8122C133.996 26.8301 133.97 26.8479 133.942 26.8652ZM136.617 25.8074L165.895 26.9842M136.617 25.8074C136.617 25.8073 136.617 25.8072 136.617 25.8071L136.356 25.3809M136.617 25.8074C136.617 25.8074 136.616 25.8075 136.616 25.8076L136.356 25.3809M136.617 25.8074C136.773 25.7116 136.922 25.6005 137.036 25.4676C137.152 25.3321 137.259 25.1405 137.251 24.9022C137.244 24.6637 137.126 24.479 137.003 24.3515C136.882 24.2267 136.727 24.1265 136.568 24.0428C136.12 23.8059 135.667 23.5702 135.215 23.3349C135.071 23.2603 134.928 23.1857 134.785 23.1112M136.617 25.8074L136.152 20.8108C136.263 20.9441 136.371 21.0824 136.446 21.2207C136.522 21.3606 136.596 21.5589 136.553 21.7893C136.511 22.0208 136.369 22.1796 136.245 22.2836C136.124 22.3859 135.972 22.4754 135.816 22.5586M165.796 26.494C165.796 26.4942 165.795 26.4943 165.794 26.4945L165.895 26.9842M165.796 26.494C165.797 26.4939 165.798 26.4937 165.798 26.4936L165.895 26.9842M165.796 26.494C165.931 26.4663 166.076 26.4427 166.213 26.4448C166.354 26.4469 166.543 26.4767 166.708 26.6129C166.873 26.7488 166.939 26.928 166.969 27.0643C166.998 27.1977 167.003 27.3442 167.003 27.4813C167.003 27.7321 167.004 27.9834 167.004 28.2349C167.005 29.2433 167.006 30.2568 166.989 31.2696M165.895 26.9842C166.406 26.8792 166.503 26.9632 166.503 27.4813C166.503 27.7334 166.504 27.9854 166.504 28.2375C166.505 29.2456 166.506 30.2538 166.489 31.2619M166.989 31.2696C166.989 31.2694 166.989 31.2692 166.989 31.269L166.489 31.2619M166.989 31.2696C166.961 33.2443 166.93 35.2206 166.898 37.1964L166.898 37.1973C166.872 38.8712 166.845 40.5446 166.821 42.2169M166.989 31.2696C166.989 31.2698 166.989 31.27 166.989 31.2702L166.489 31.2619M166.489 31.2619L166.821 42.2169M166.821 42.2169C167.034 42.0093 167.257 41.8062 167.488 41.6313M166.821 42.2169L167.791 42.0297M167.488 41.6313C167.489 41.6311 167.489 41.6308 167.489 41.6305L167.791 42.0297M167.488 41.6313C167.488 41.6316 167.488 41.6319 167.487 41.6322L167.791 42.0297M167.488 41.6313C168.528 40.8386 169.686 40.5679 170.742 40.855C171.797 41.142 172.66 41.9618 173.163 43.1678M167.791 42.0297C169.672 40.5945 171.792 41.1756 172.701 43.36M173.163 43.1678C173.162 43.1677 173.162 43.1676 173.162 43.1674L172.701 43.36M173.163 43.1678C173.722 44.5094 173.735 45.8914 173.494 47.2209M173.163 43.1678L172.701 43.36M172.701 43.36L173.494 47.2209M173.494 47.2209C173.465 47.2688 173.436 47.3167 173.407 47.3644L172.974 47.2806L173.494 47.2209ZM173.494 47.2209C173.484 47.2729 173.475 47.3247 173.464 47.3764C173.364 47.896 173.226 48.3888 173.05 48.8576C175.794 44.7138 177.683 40.1907 178.22 35.0776C178.549 31.969 178.248 28.9235 177.136 25.997C175.205 20.9072 171.554 17.5186 166.587 15.4813M173.494 47.2209C175.733 43.5065 177.254 39.4913 177.723 35.0254L177.723 35.025C178.044 31.9838 177.749 29.0184 176.668 26.1747L176.668 26.1744C174.793 21.2298 171.252 17.9355 166.398 15.9439M166.398 15.9439C166.398 15.944 166.398 15.944 166.398 15.9441L166.587 15.4813M166.398 15.9439C161.79 14.0595 156.978 13.7517 152.052 14.3741L152.052 14.3741C146.238 15.1066 140.834 17.0898 135.803 20.0751M166.398 15.9439C166.398 15.9439 166.398 15.9439 166.398 15.9439L166.587 15.4813M166.587 15.4813C161.88 13.5559 156.976 13.2479 151.989 13.878M165.428 56.8762C165.424 56.904 165.419 56.9318 165.415 56.9594C165.415 56.9624 165.414 56.9654 165.414 56.9684C165.381 57.1761 165.35 57.3782 165.32 57.5731C165.506 57.4456 165.671 57.3316 165.713 57.2923C167.325 55.8499 168.847 54.3115 170.231 52.649C169.872 52.9266 169.478 53.1257 169.067 53.2358M165.428 56.8762C166.709 55.727 167.93 54.5183 169.067 53.2358M165.428 56.8762C165.536 56.1842 165.657 55.4339 165.776 54.6877L165.805 54.5101C165.923 53.7713 166.041 53.0413 166.144 52.3829M165.428 56.8762C165.412 56.8907 165.396 56.9052 165.38 56.9197L165.38 56.9196L165.374 56.925C165.377 56.9225 165.374 56.9241 165.365 56.9308C165.351 56.9412 165.321 56.9638 165.267 57.0015C165.193 57.0538 165.099 57.1184 164.998 57.1879L164.97 57.2074C164.934 57.2322 164.896 57.2577 164.859 57.2835C164.993 56.4108 165.154 55.4122 165.311 54.4316C165.453 53.5452 165.593 52.6735 165.709 51.9232C165.734 51.9487 165.76 51.9755 165.786 52.0031C165.853 52.0734 165.931 52.1563 165.997 52.2274C166.064 52.2994 166.12 52.3594 166.143 52.3822C166.143 52.3824 166.144 52.3827 166.144 52.3829M169.067 53.2358C168.793 53.3093 168.512 53.3431 168.228 53.3343C167.475 53.311 166.748 52.9885 166.144 52.3829M169.067 53.2358C169.344 52.9235 169.616 52.6068 169.883 52.2855C168.825 53.076 167.5 53.0354 166.497 52.0291C166.477 52.0089 166.432 51.9607 166.374 51.8986C166.335 51.8562 166.289 51.8073 166.241 51.7563C166.211 51.9553 166.178 52.1643 166.144 52.3811C166.144 52.3817 166.144 52.3823 166.144 52.3829M135.544 19.647C140.629 16.6295 146.099 14.6201 151.989 13.878M135.544 19.647C135.462 19.6973 135.382 19.7496 135.301 19.804C135.414 19.9366 135.522 20.0636 135.627 20.1874M135.544 19.647L135.799 20.077C135.8 20.0763 135.801 20.0757 135.803 20.0751M135.544 19.647L135.806 20.0732C135.805 20.0738 135.804 20.0744 135.803 20.0751M151.989 13.878L135.627 20.1874M135.627 20.1874C135.55 20.2385 135.473 20.2921 135.389 20.3502C135.333 20.3884 135.275 20.4285 135.212 20.4712C135.405 20.6984 135.587 20.9134 135.768 21.1312C136.202 21.6493 136.181 21.7963 135.579 22.1184M135.627 20.1874C135.685 20.1489 135.743 20.1117 135.803 20.0751M135.579 22.1184C135.143 22.3545 134.707 22.5868 134.25 22.8292C134.275 22.8446 134.296 22.8567 134.32 22.8685L134.328 22.8726L134.328 22.8727C134.48 22.9522 134.632 23.0317 134.785 23.1112M135.579 22.1184L135.817 22.558C135.817 22.5582 135.817 22.5584 135.816 22.5586M135.579 22.1184L135.815 22.5592C135.816 22.559 135.816 22.5588 135.816 22.5586M134.785 23.1112C134.609 23.2046 134.431 23.299 134.249 23.3953C134.495 23.524 134.741 23.652 134.987 23.7799C135.438 24.0144 135.887 24.2483 136.335 24.4848C136.88 24.7718 136.894 25.0519 136.356 25.3809M134.785 23.1112C135.135 22.9251 135.476 22.7431 135.816 22.5586" fill="#2B2B2B" stroke="#2B2B2B"/>
<path d="M166.636 26.8641C157.594 28.7842 147.122 29.349 137.921 27.9126C136.834 33.1728 135.488 40.0444 135.925 47.1726C136.57 57.7035 140.882 66.93 151.678 62.606C151.816 64.995 151.903 67.4827 151.997 69.8717L149.036 71.1741L146.075 72.4765V73.9649L146.438 75.4534C150.585 83.9897 163.933 76.3241 168.189 71.3601C166.461 70.4432 165.289 70.2438 163.04 69.8062C163.902 64.3361 164.337 60.5777 165.149 55.1002C165.316 53.969 165.432 52.8229 165.592 51.6842C165.613 51.5577 165.737 51.3418 165.809 51.3418C165.969 51.3493 166.193 51.4237 166.266 51.5428C167.187 53.1652 168.706 53.4057 169.982 52.3786C172.121 50.652 173.719 46.6025 172.77 43.9903C172.074 42.0925 170.101 40.405 168.463 41.5437L166.497 42.9417L166.636 26.8641Z" fill="white"/>
<path d="M145.725 40.0444C144.522 43.3786 143.224 46.7127 142.927 50.285C142.767 51.7437 142.999 51.9 144.413 51.8256L146.8 51.638M137.921 27.9126C147.122 29.349 157.594 28.7842 166.636 26.8641L166.497 42.9417L168.463 41.5437C170.101 40.405 172.074 42.0925 172.77 43.9903C173.719 46.6025 172.121 50.652 169.982 52.3786C168.706 53.4057 167.187 53.1652 166.266 51.5428C166.193 51.4237 165.969 51.3493 165.809 51.3418C165.737 51.3418 165.613 51.5577 165.592 51.6842C165.432 52.8229 165.316 53.969 165.149 55.1002C164.337 60.5777 163.902 64.3361 163.04 69.8062C165.289 70.2438 166.461 70.4432 168.189 71.3601C163.933 76.3241 150.585 83.9897 146.438 75.4534L146.075 73.9649V72.4765L149.036 71.1741L151.997 69.8717C151.903 67.4827 151.816 64.995 151.678 62.606C140.882 66.93 136.57 57.7035 135.925 47.1726C135.488 40.0444 136.834 33.1728 137.921 27.9126Z" stroke="#2B2B2B" stroke-width="0.7" stroke-linecap="round"/>
<path d="M135.478 103.467L135.539 103.112L135.183 103.061C133.523 102.826 131.812 102.675 130.111 102.527L129.958 102.514C128.305 102.37 126.664 102.228 125.074 102.012L124.765 101.971L124.688 102.273C123.843 105.578 122.941 109.631 122.421 113.017L122.42 113.025L122.419 113.033C122.391 113.298 122.336 113.427 122.271 113.508C122.205 113.591 122.096 113.668 121.867 113.757C120.4 114.323 118.939 114.893 117.479 115.463C115.613 116.19 113.749 116.918 111.875 117.636C111.663 117.641 111.451 117.645 111.239 117.649C108.096 117.714 104.907 117.779 102.281 120.217C99.5214 122.541 98.5282 126.134 99.758 129.293C99.8524 129.583 99.9998 129.837 100.242 129.969C100.507 130.114 100.783 130.06 101.001 129.951C101.214 129.845 101.416 129.666 101.601 129.466C101.789 129.263 101.976 129.017 102.155 128.755C102.511 128.231 102.847 127.619 103.103 127.088C103.196 126.893 103.28 126.707 103.351 126.539C103.197 127.869 103.238 128.806 103.438 129.398C103.544 129.714 103.713 129.978 103.969 130.123C104.237 130.275 104.529 130.258 104.79 130.156C105.28 129.963 105.768 129.433 106.182 128.774C106.585 128.134 106.954 127.318 107.218 126.412C107.205 126.611 107.169 126.836 107.128 127.09L107.122 127.124C107.076 127.405 107.025 127.716 107.007 128.02C106.969 128.645 107.062 129.364 107.74 129.799L107.762 129.813L107.786 129.823C108.19 130.004 108.573 129.944 108.89 129.787C109.19 129.637 109.438 129.398 109.626 129.185C109.995 128.82 110.307 128.385 110.598 127.98C110.669 127.882 110.738 127.785 110.807 127.692C111.071 127.333 111.331 127.009 111.628 126.747C111.649 126.888 111.654 127.042 111.65 127.211C111.649 127.281 111.645 127.356 111.642 127.435C111.63 127.714 111.616 128.039 111.668 128.346L111.668 128.347C111.761 128.881 112.004 129.337 112.442 129.515C112.881 129.694 113.357 129.531 113.774 129.198C114.106 128.999 114.359 128.727 114.57 128.451C114.711 128.266 114.847 128.061 114.972 127.87C115.033 127.778 115.091 127.689 115.147 127.608C115.512 127.077 115.833 126.745 116.371 126.722C118.627 126.704 120.183 126.768 121.334 126.815C121.374 126.817 121.413 126.818 121.452 126.82C122.604 126.867 123.382 126.897 124.06 126.783C124.759 126.666 125.338 126.402 126.117 125.908C126.646 125.573 127.284 125.121 128.127 124.523C128.509 124.252 128.933 123.951 129.408 123.618L129.445 123.592L129.474 123.558L129.207 123.332C129.474 123.558 129.474 123.558 129.474 123.558L129.474 123.558L129.475 123.557L129.476 123.556L129.481 123.55L129.499 123.528C129.515 123.509 129.537 123.482 129.566 123.446C129.623 123.375 129.705 123.272 129.804 123.142C130.003 122.882 130.272 122.512 130.555 122.071C131.116 121.2 131.753 120.022 131.99 118.862C132.289 117.609 132.598 116.38 132.91 115.139C133.793 111.623 134.7 108.011 135.478 103.467Z" fill="white" stroke="#2B2B2B" stroke-width="0.7"/>
<path d="M187.787 106.422L168.586 107.254V118.285C156.633 117.208 132.121 118.285 132.121 118.285L135.131 103.409C135.131 103.409 135.131 103.409 124.684 102.004C128.043 89.8201 135.097 77.8737 146.576 71.883C147.517 77.3284 153.322 79.2368 157.978 76.9719C161.829 75.0985 165.45 72.3024 167.52 70.7226C181.048 76.6853 187.3 92.4275 187.781 106.429L187.787 106.422Z" fill="#B8BDF5" stroke="#2B2B2B" stroke-width="0.7" stroke-linejoin="round"/>
<path d="M168.492 106.855L168.117 106.878L168.116 107.253C168.111 109.174 168.114 111.823 168.115 113.687C168.116 114.155 168.116 114.574 168.116 114.919C157.35 113.826 146.332 114.526 135.866 117.378C127.433 119.181 123.402 123.485 122.453 126.318C122.217 127.023 122.158 127.683 122.323 128.2C122.408 128.464 122.554 128.698 122.771 128.869C122.99 129.041 123.256 129.129 123.546 129.14C124.11 129.162 124.775 128.896 125.499 128.379C126.038 127.993 126.635 127.451 127.28 126.733C127.189 126.893 127.101 127.06 127.017 127.23C126.733 127.811 126.487 128.461 126.389 129.022C126.34 129.3 126.322 129.584 126.373 129.836C126.424 130.094 126.558 130.36 126.839 130.509C127.107 130.651 127.423 130.64 127.739 130.556C128.054 130.472 128.421 130.301 128.846 130.043C129.737 129.662 130.369 128.894 130.91 128.235C130.928 128.213 130.945 128.192 130.962 128.171C131.338 127.715 131.67 127.323 132.023 127.049C131.937 127.284 131.816 127.533 131.678 127.811L131.661 127.847C131.398 128.377 131.084 129.01 131.072 129.728L131.071 129.81L131.102 129.885C131.23 130.2 131.421 130.457 131.702 130.589C131.987 130.724 132.284 130.693 132.541 130.604C133.029 130.435 133.546 129.994 134.01 129.553C134.235 129.34 134.461 129.112 134.68 128.891L134.727 128.844C134.962 128.608 135.188 128.382 135.401 128.184C135.532 128.063 135.654 127.955 135.767 127.865C135.757 127.886 135.746 127.908 135.734 127.931C135.688 128.019 135.643 128.099 135.593 128.187C135.562 128.242 135.529 128.3 135.493 128.365C135.415 128.507 135.333 128.666 135.271 128.839C134.915 129.418 135.009 130.054 135.413 130.433C135.822 130.818 136.459 130.853 136.986 130.425C137.601 130.135 138.116 129.661 138.571 129.242C138.67 129.151 138.766 129.063 138.86 128.98C139.418 128.482 139.918 128.129 140.551 128.087C143.366 128.301 147.576 128.623 151.086 128.892C152.847 129.027 154.431 129.149 155.576 129.236L156.929 129.34L157.297 129.369L157.392 129.376L157.417 129.378L157.423 129.378L157.424 129.378L157.425 129.379C157.425 129.379 157.425 129.379 157.455 128.984L157.425 129.379L157.431 129.379L157.455 128.98C157.431 129.379 157.431 129.379 157.431 129.379L157.432 129.379L157.434 129.379L157.444 129.38L157.48 129.382L157.624 129.39C157.75 129.398 157.937 129.408 158.176 129.421C158.656 129.448 159.35 129.484 160.209 129.524C161.926 129.604 164.303 129.7 166.941 129.761C172.207 129.885 178.543 129.874 182.737 129.327L182.803 129.319L182.863 129.289C183.48 128.985 183.981 128.444 184.392 127.767C184.804 127.089 185.14 126.25 185.416 125.311C185.969 123.432 186.3 121.095 186.497 118.701C186.824 114.737 186.789 110.559 186.767 107.958C186.763 107.416 186.759 106.944 186.759 106.555V106.129L186.334 106.156C183.554 106.33 180.512 106.417 177.452 106.505L177.424 106.505C174.377 106.592 171.314 106.68 168.492 106.855Z" fill="white" stroke="#2B2B2B" stroke-width="0.8"/>
<path d="M157.675 45.8145L157.676 45.8142C159.696 44.0093 160.518 41.7801 160.571 39.9259C160.593 37.5597 160.154 35.9766 159.124 34.5568L159.124 34.5567C157.067 31.7197 153.272 31.2829 150.462 33.5822L150.462 33.5824C147.141 36.2949 146.336 41.4249 148.659 44.8383L157.675 45.8145ZM157.675 45.8145C154.8 48.3898 150.763 47.9287 148.659 44.8383L157.675 45.8145Z" stroke="#2B2B2B" stroke-width="0.7"/>
<path d="M144.864 58.312C144.194 58.3204 143.957 58.2575 143.497 57.9709C143.044 57.6843 142.689 56.8441 142.877 56.4107C142.933 56.2848 143.149 56.2233 143.149 56.2233C143.497 56.2233 143.47 56.3547 143.484 56.4876C143.581 57.3124 143.902 57.6619 144.766 57.634C146.139 57.592 147.289 57.0538 148.105 55.9004C148.105 55.9004 148.486 55.3778 148.669 55.5369C148.852 55.6959 148.864 55.8444 148.823 55.9703C148.753 56.194 148.6 56.3967 148.453 56.5854C147.659 57.592 146.153 58.312 144.864 58.312Z" fill="#2B2B2B"/>
<path d="M152.312 41.1816C152.374 40.3707 152.542 39.6927 153.106 39.1824C153.692 38.6511 154.431 38.7909 154.772 39.5109C155.169 40.3288 154.884 41.7199 154.194 42.321C153.566 42.8663 152.786 42.6775 152.486 41.8946C152.388 41.643 152.354 41.3704 152.312 41.1816Z" fill="#2B2B2B"/>
<path d="M154.263 35.2958C154.668 35.3657 155.149 35.4216 155.609 35.5475C155.755 35.5894 155.853 35.8201 155.971 35.9669C155.811 36.0508 155.643 36.2115 155.483 36.2045C154.8 36.1766 154.11 36.1067 153.434 36.0228C153.302 36.0088 153.099 35.8341 153.093 35.7222C153.093 35.6034 153.253 35.4007 153.378 35.3727C153.636 35.3028 153.915 35.3238 154.263 35.3028V35.2958Z" fill="#2B2B2B"/>
<path d="M142.606 45.9465L142.606 45.9461C144.418 44.1292 145.161 41.8771 145.208 39.994C145.229 37.6004 144.833 35.9972 143.905 34.5626L143.905 34.5625C142.977 33.1238 141.67 32.3167 140.301 32.1431C138.932 31.9695 137.464 32.4247 136.205 33.5819L136.205 33.5821C133.227 36.3139 132.492 41.5055 134.588 44.9633L142.606 45.9465ZM142.606 45.9465C141.315 47.245 139.778 47.7606 138.345 47.5839M142.606 45.9465L138.345 47.5839M138.345 47.5839C136.912 47.4071 135.539 46.5322 134.588 44.9633L138.345 47.5839Z" stroke="#2B2B2B" stroke-width="0.7"/>
<path d="M142.108 41.4473C142.108 41.5102 142.108 41.5801 142.108 41.643C142.052 42.363 141.697 42.8523 141.16 42.9572C140.7 43.048 140.164 42.7335 139.85 42.1463C139.467 41.4193 139.32 40.6504 139.676 39.8675C140.01 39.1265 140.742 38.9867 141.342 39.5319C141.906 40.0422 142.08 40.7203 142.101 41.4543L142.108 41.4473Z" fill="#2B2B2B"/>
<path d="M140.435 36.3444C139.975 36.4143 139.515 36.4772 139.055 36.5541C138.805 36.596 138.512 36.631 138.491 36.3094C138.484 36.1626 138.714 35.897 138.874 35.869C139.522 35.7572 140.178 35.7013 140.833 35.6593C141.091 35.6453 141.411 35.7292 141.362 36.0648C141.341 36.1976 141.021 36.2954 140.826 36.3723C140.714 36.4143 140.575 36.3793 140.442 36.3793C140.442 36.3653 140.442 36.3514 140.442 36.3374L140.435 36.3444Z" fill="#2B2B2B"/>
<path d="M146.982 40.1456C146.982 40.1456 145.768 40.031 144.891 40.1648" stroke="black" stroke-linecap="round" stroke-linejoin="round"/>
<path d="M135.133 103.516C135.133 103.516 136.188 98.9355 136.527 98.2534" stroke="black" stroke-width="0.7" stroke-linecap="round" stroke-linejoin="round"/>
<path d="M168.034 103.723C168.034 103.723 168.06 98.9728 168.521 98.1651" stroke="black" stroke-width="0.7" stroke-linecap="round" stroke-linejoin="round"/>
<path d="M53.7041 165.703C54.8838 165.703 55.8916 166.117 56.5635 166.812H59.876V165.266H61.6104V172.406H59.876V171.047H56.5791C55.915 171.758 54.8916 172.18 53.7041 172.188C51.5635 172.18 49.9697 170.852 49.9697 168.938C49.9697 167.023 51.5635 165.703 53.7041 165.703ZM51.626 168.938C51.626 170.062 52.4932 170.773 53.7041 170.781C54.876 170.773 55.7432 170.062 55.751 168.938C55.7432 167.828 54.876 167.109 53.7041 167.109C52.4932 167.109 51.626 167.828 51.626 168.938ZM52.2979 174.391V173.047H61.6104V176.703H54.0479V177.844H62.0635V179.219H52.3135V175.422H59.876V174.391H52.2979ZM57.3057 168.156C57.3682 168.406 57.4072 168.664 57.4072 168.938C57.4072 169.195 57.376 169.453 57.3135 169.688H59.876V168.156H57.3057ZM75.376 165.281V173.266H73.626V165.281H75.376ZM63.6104 171.609C65.8994 170.883 67.0869 169.047 67.0791 167.188V165.812H68.876V167.188C68.8682 168.992 70.0713 170.672 72.2822 171.375L71.4385 172.703C69.8057 172.195 68.6338 171.156 67.9932 169.805C67.3604 171.258 66.165 172.422 64.4697 172.984L63.6104 171.609ZM66.001 179.219V173.969H75.376V179.219H66.001ZM67.7197 177.812H73.6729V175.344H67.7197V177.812ZM89.1885 165.266V179.391H87.4385V165.266H89.1885ZM77.7354 168.844V167.453H81.0947V165.438H82.8604V167.453H86.2041V168.844H77.7354ZM78.4072 173.078C78.4072 171.125 79.9229 169.742 82.001 169.75C84.0713 169.742 85.5947 171.125 85.5947 173.078C85.5947 175.023 84.0713 176.391 82.001 176.391C79.9229 176.391 78.4072 175.023 78.4072 173.078ZM80.0635 173.078C80.0635 174.227 80.8682 174.961 82.001 174.953C83.126 174.961 83.9307 174.227 83.9229 173.078C83.9307 171.93 83.126 171.172 82.001 171.172C80.8682 171.172 80.0635 171.93 80.0635 173.078ZM107.188 165.266V179.391H105.517V172.141H104.001V178.734H102.376V165.641H104.001V170.734H105.517V165.266H107.188ZM94.9541 175.234C97.9619 173.5 99.2354 171.266 99.4854 168.438H95.6104V167.047H101.173C101.173 170.867 99.9697 174.148 95.9541 176.438L94.9541 175.234ZM111.095 165.891V167.688H114.392V165.891H116.11V172.047H109.376V165.891H111.095ZM110.798 174.422V173.062H120.032V176.766H112.532V177.891H120.47V179.266H110.813V175.5H118.298V174.422H110.798ZM111.095 170.672H114.392V169H111.095V170.672ZM118.298 172.5V165.266H120.032V168.125H122.001V169.531H120.032V172.5H118.298ZM135.595 171.75V173.156H130.001V174.344C132.524 174.508 134.024 175.383 134.032 176.844C134.024 178.469 132.181 179.375 129.142 179.375C126.056 179.375 124.22 178.469 124.22 176.844C124.22 175.383 125.72 174.5 128.282 174.336V173.156H122.72V171.75H135.595ZM123.345 169.734C125.938 169.492 127.634 168.438 127.923 167.281H123.892V165.891H134.438V167.281H130.368C130.649 168.445 132.329 169.492 134.985 169.734L134.376 171.109C131.806 170.844 129.907 169.82 129.142 168.391C128.376 169.82 126.501 170.844 123.938 171.109L123.345 169.734ZM125.985 176.844C125.978 177.625 127.087 178.055 129.142 178.047C131.165 178.055 132.282 177.625 132.298 176.844C132.282 176.062 131.165 175.648 129.142 175.641C127.087 175.648 125.978 176.062 125.985 176.844ZM148.298 165.266V179.406H146.548V165.266H148.298ZM137.001 171.281C136.993 168.234 138.548 166.297 140.688 166.297C142.806 166.297 144.368 168.234 144.376 171.281C144.368 174.352 142.806 176.281 140.688 176.281C138.548 176.281 136.993 174.352 137.001 171.281ZM138.673 171.281C138.673 173.453 139.493 174.711 140.688 174.719C141.876 174.711 142.688 173.453 142.688 171.281C142.688 169.125 141.876 167.859 140.688 167.859C139.493 167.859 138.673 169.125 138.673 171.281ZM162.563 165.266V179.391H160.892V165.266H162.563ZM150.517 171.375C150.517 168.266 151.72 166.336 153.563 166.344C155.274 166.336 156.438 167.938 156.642 170.578H158.001V165.516H159.657V178.703H158.001V171.984H156.657C156.493 174.742 155.313 176.43 153.563 176.422C151.72 176.43 150.517 174.492 150.517 171.375ZM152.126 171.375C152.118 173.586 152.665 174.773 153.563 174.766C154.501 174.773 155.056 173.586 155.063 171.375C155.056 169.172 154.501 167.977 153.563 167.984C152.665 167.977 152.118 169.172 152.126 171.375ZM177.11 176.25V177.672H164.204V176.25H167.188V172.68C166.063 172.031 165.384 171.016 165.392 169.766C165.384 167.516 167.587 166.031 170.626 166.031C173.681 166.031 175.899 167.516 175.892 169.766C175.899 171 175.235 171.992 174.142 172.641V176.25H177.11ZM167.095 169.766C167.087 171.211 168.517 172.133 170.626 172.125C172.728 172.133 174.188 171.211 174.188 169.766C174.188 168.297 172.728 167.398 170.626 167.406C168.517 167.398 167.087 168.297 167.095 169.766ZM168.907 176.25H172.376V173.305C171.837 173.422 171.251 173.484 170.626 173.484C170.017 173.484 169.438 173.422 168.907 173.312V176.25ZM179.751 178.125C179.079 178.125 178.524 177.578 178.532 176.906C178.524 176.25 179.079 175.711 179.751 175.703C180.399 175.711 180.954 176.25 180.954 176.906C180.954 177.578 180.399 178.125 179.751 178.125ZM95.4932 187.906V189.078C95.4932 190.188 95.4932 191.367 95.1182 192.844L93.3838 192.641C93.7354 191.281 93.7588 190.297 93.7588 189.281H85.7119V187.906H95.4932ZM84.2432 194.875V193.469H89.2119V191.016H90.9307V193.469H97.0557V194.875H84.2432ZM85.7588 201.203V196.141H95.4619V197.531H87.5088V199.812H95.6494V201.203H85.7588ZM109.009 188.484V195.156H102.321V188.484H109.009ZM103.931 201.109V196.578H105.665V199.703H113.54V201.109H103.931ZM104.024 193.781H107.306V189.875H104.024V193.781ZM111.243 197.578V187.266H112.978V191.406H114.946V192.859H112.978V197.578H111.243ZM128.821 192.719V194.141H126.728V201.359H124.993V187.266H126.728V192.719H128.821ZM116.165 197.875V188.641H117.884V196.438C119.767 196.406 121.767 196.242 123.899 195.797L124.087 197.266C121.704 197.742 119.446 197.867 117.353 197.875H116.165ZM142.399 198.25V199.672H129.493V198.25H132.478V194.68C131.353 194.031 130.673 193.016 130.681 191.766C130.673 189.516 132.876 188.031 135.915 188.031C138.97 188.031 141.188 189.516 141.181 191.766C141.188 193 140.524 193.992 139.431 194.641V198.25H142.399ZM132.384 191.766C132.376 193.211 133.806 194.133 135.915 194.125C138.017 194.133 139.478 193.211 139.478 191.766C139.478 190.297 138.017 189.398 135.915 189.406C133.806 189.398 132.376 190.297 132.384 191.766ZM134.196 198.25H137.665V195.305C137.126 195.422 136.54 195.484 135.915 195.484C135.306 195.484 134.728 195.422 134.196 195.312V198.25ZM146.228 188.688L146.056 196.672H144.29L144.103 188.688H146.228ZM143.962 198.906C143.954 198.25 144.509 197.711 145.181 197.703C145.829 197.711 146.384 198.25 146.384 198.906C146.384 199.578 145.829 200.125 145.181 200.125C144.509 200.125 143.954 199.578 143.962 198.906Z" fill="#2B2B2B"/>
</svg>
