<svg width="24" height="24" viewBox="0 0 24 24" fill="none" xmlns="http://www.w3.org/2000/svg">
<g clip-path="url(#clip0_547_788)">
<rect width="24" height="24" rx="6" fill="#276EF1"/>
<path d="M14.1279 2.14263C15.69 3.70472 15.69 6.23738 14.1279 7.79948L5.64265 16.2848C4.08055 14.7227 4.08055 12.19 5.64265 10.6279L14.1279 2.14263Z" fill="white"/>
<path d="M7.05688 -4.92834L14.1279 2.14264C15.69 3.70474 15.69 6.2374 14.1279 7.79949L4.22846 -2.09992L7.05688 -4.92834Z" fill="white"/>
<path d="M11.2996 16.2848L21.1991 26.1843L18.3707 29.0127L11.2996 21.9416C9.73746 20.3795 9.73746 17.8469 11.2996 16.2848Z" fill="white"/>
<rect x="1.354" y="0.682396" width="14" height="4" transform="rotate(45 1.354 0.682396)" fill="white"/>
<path d="M19.7847 7.79948C21.3468 9.36158 21.3468 11.8942 19.7847 13.4563L11.2994 21.9416C9.73729 20.3795 9.73729 17.8469 11.2994 16.2848L19.7847 7.79948Z" fill="white"/>
</g>
<defs>
<clipPath id="clip0_547_788">
<rect width="24" height="24" rx="6" fill="white"/>
</clipPath>
</defs>
</svg>
