<svg width="37" height="25" viewBox="0 0 37 25" fill="none" xmlns="http://www.w3.org/2000/svg">
<rect width="37" height="25" rx="6" fill="#276EF1"/>
<path d="M11.5156 10.4961C11.5156 12.1543 12.3242 13.9414 13.707 14.7617L13.1797 15.4766C12.1719 14.8672 11.4512 13.7539 11.0879 12.4824C10.707 13.8711 9.93359 15.0664 8.89062 15.6992L8.30469 15.0078C9.74609 14.1641 10.625 12.3184 10.625 10.5312V8.51562H11.5156V10.4961ZM12.5586 12.0547V11.2695H14.3281V7.75391H15.1953V17.4219H14.3281V12.0547H12.5586ZM16.4609 17.9492V7.53125H17.3516V17.9492H16.4609ZM24.3945 8.30469V9.05469H20.3281V10.3672H24.1016V11.1172H20.3281V12.4883C22.543 12.4941 23.7852 12.4531 25.25 12.207L25.3438 12.957C23.8262 13.2031 22.5488 13.2559 20.2461 13.25H19.4023V8.30469H24.3945ZM20.4102 16.0273C20.4102 14.8379 21.7285 14.1406 23.9375 14.1523C26.1055 14.1406 27.4473 14.8379 27.4414 16.0273C27.4473 17.2402 26.1055 17.9258 23.9375 17.9258C21.7285 17.9258 20.4102 17.2402 20.4102 16.0273ZM21.3242 16.0273C21.3242 16.7656 22.2969 17.1992 23.9375 17.1992C25.5312 17.1992 26.5332 16.7656 26.5391 16.0273C26.5332 15.3184 25.5312 14.8789 23.9375 14.8789C22.2969 14.8789 21.3242 15.3184 21.3242 16.0273ZM26.4805 14V7.54297H27.3945V14H26.4805Z" fill="white"/>
</svg>
