<svg width="24" height="24" viewBox="0 0 24 24" fill="none" xmlns="http://www.w3.org/2000/svg">
<path fill-rule="evenodd" clip-rule="evenodd" d="M2 8.9234L15.0421 5.23083V18.7691L9.73579 17.1862C9.82393 18.6079 8.86097 19.8508 7.55579 20C6.22655 19.8438 5.2569 18.5613 5.37474 17.1154V16.1314L2 15.0765V8.9234Z" stroke="black" stroke-width="2" stroke-linecap="round" stroke-linejoin="round"/>
<path d="M22 12.3223C22.5523 12.3223 23 11.8746 23 11.3223C23 10.77 22.5523 10.3223 22 10.3223V12.3223ZM20.0379 10.3223C19.4856 10.3223 19.0379 10.77 19.0379 11.3223C19.0379 11.8746 19.4856 12.3223 20.0379 12.3223V10.3223ZM18.9612 18.0876C19.3327 18.4962 19.9652 18.5262 20.3738 18.1547C20.7824 17.7831 20.8125 17.1507 20.4409 16.742L18.9612 18.0876ZM19.0556 15.2186C18.6841 14.81 18.0516 14.78 17.643 15.1515C17.2344 15.5231 17.2044 16.1555 17.5759 16.5641L19.0556 15.2186ZM20.4425 5.90419C20.8144 5.49586 20.7848 4.86338 20.3765 4.49152C19.9681 4.11966 19.3357 4.14922 18.9638 4.55755L20.4425 5.90419ZM17.5764 6.08098C17.2046 6.48931 17.2341 7.12178 17.6425 7.49365C18.0508 7.86551 18.6833 7.83595 19.0551 7.42762L17.5764 6.08098ZM16.0421 18.7691C16.0421 18.2168 15.5944 17.7691 15.0421 17.7691C14.4898 17.7691 14.0421 18.2168 14.0421 18.7691H16.0421ZM14.0421 20C14.0421 20.5523 14.4898 21 15.0421 21C15.5944 21 16.0421 20.5523 16.0421 20H14.0421ZM14.0421 5.23085C14.0421 5.78314 14.4898 6.23085 15.0421 6.23085C15.5944 6.23085 16.0421 5.78314 16.0421 5.23085H14.0421ZM16.0421 4C16.0421 3.44772 15.5944 3 15.0421 3C14.4898 3 14.0421 3.44772 14.0421 4H16.0421ZM5.60984 15.1595C5.07304 15.0296 4.53261 15.3595 4.40277 15.8963C4.27293 16.4331 4.60283 16.9736 5.13964 17.1034L5.60984 15.1595ZM9.50069 18.1583C10.0375 18.2881 10.5779 17.9582 10.7078 17.4214C10.8376 16.8846 10.5077 16.3442 9.97089 16.2143L9.50069 18.1583ZM11.4211 7.4286C11.4211 6.87631 10.9733 6.4286 10.4211 6.4286C9.86877 6.4286 9.42105 6.87631 9.42105 7.4286H11.4211ZM9.42105 17.7143C9.42105 18.2666 9.86877 18.7143 10.4211 18.7143C10.9733 18.7143 11.4211 18.2666 11.4211 17.7143H9.42105ZM22 10.3223H20.0379V12.3223H22V10.3223ZM20.4409 16.742L19.0556 15.2186L17.5759 16.5641L18.9612 18.0876L20.4409 16.742ZM18.9638 4.55755L17.5764 6.08098L19.0551 7.42762L20.4425 5.90419L18.9638 4.55755ZM14.0421 18.7691V20H16.0421V18.7691H14.0421ZM16.0421 5.23085V4H14.0421V5.23085H16.0421ZM5.13964 17.1034L9.50069 18.1583L9.97089 16.2143L5.60984 15.1595L5.13964 17.1034ZM9.42105 7.4286V17.7143H11.4211V7.4286H9.42105Z" fill="black"/>
</svg>
